<svg width="25" height="21" viewBox="0 0 25 21" fill="none" xmlns="http://www.w3.org/2000/svg">
<path d="M7.15281 10.46L2.84293 6.59391V14.3261L7.15281 10.46ZM1.12011 20.2951C1.01365 20.3905 0.888631 20.4468 0.758694 20.458C0.628757 20.4691 0.498904 20.4347 0.383313 20.3585C0.267722 20.2822 0.170838 20.1671 0.10324 20.0256C0.0356415 19.8841 -7.15747e-05 19.7217 1.07697e-07 19.5562V1.36382C-7.15747e-05 1.1983 0.0356415 1.03594 0.10324 0.89446C0.170838 0.752984 0.267722 0.637834 0.383313 0.561582C0.498904 0.485331 0.628757 0.450912 0.758694 0.462081C0.888631 0.473251 1.01365 0.529581 1.12011 0.62492L11.2594 9.72293C11.3521 9.80639 11.4277 9.91687 11.4799 10.0451C11.5321 10.1734 11.5593 10.3156 11.5593 10.46C11.5593 10.6044 11.5321 10.7467 11.4799 10.8749C11.4277 11.0032 11.3521 11.1137 11.2594 11.1971L1.12011 20.2951ZM15.6361 14.3261L19.946 10.46L15.6361 6.59391V14.3261ZM12.7932 1.36382C12.7931 1.1983 12.8288 1.03594 12.8964 0.89446C12.964 0.752984 13.0609 0.637834 13.1765 0.561582C13.2921 0.485331 13.4219 0.450912 13.5519 0.462081C13.6818 0.473251 13.8068 0.529581 13.9133 0.62492L24.0526 9.72293C24.1453 9.80639 24.2209 9.91687 24.2731 10.0451C24.3253 10.1734 24.3525 10.3156 24.3525 10.46C24.3525 10.6044 24.3253 10.7467 24.2731 10.8749C24.2209 11.0032 24.1453 11.1137 24.0526 11.1971L13.9133 20.2951C13.8068 20.3905 13.6818 20.4468 13.5519 20.458C13.4219 20.4691 13.2921 20.4347 13.1765 20.3585C13.0609 20.2822 12.964 20.1671 12.8964 20.0256C12.8288 19.8841 12.7931 19.7217 12.7932 19.5562V1.36382Z" fill="#00E6F6"/>
</svg>
