<svg width="21" height="23" viewBox="0 0 21 23" fill="none" xmlns="http://www.w3.org/2000/svg">
<path d="M9.22533 11.46L3.66667 7.53669V15.3834L9.22533 11.46ZM0.916667 21.6075C0.673552 21.6075 0.440394 21.5109 0.268486 21.339C0.0965774 21.1671 1.38902e-07 20.934 1.38902e-07 20.6909V2.22919C-9.23134e-05 2.06122 0.0459686 1.89646 0.133153 1.75289C0.220338 1.60932 0.345294 1.49246 0.494378 1.41508C0.643461 1.3377 0.810939 1.30277 0.978525 1.31411C1.14611 1.32544 1.30736 1.38261 1.44467 1.47936L14.5218 10.712C14.6414 10.7967 14.7389 10.9088 14.8062 11.039C14.8735 11.1691 14.9086 11.3135 14.9086 11.46C14.9086 11.6065 14.8735 11.7509 14.8062 11.8811C14.7389 12.0112 14.6414 12.1233 14.5218 12.208L1.44467 21.4407C1.29007 21.5494 1.10566 21.6077 0.916667 21.6075ZM16.5 2.29336C16.5 1.80713 16.6932 1.34081 17.037 0.996993C17.3808 0.653177 17.8471 0.460022 18.3333 0.460022C18.8196 0.460022 19.2859 0.653177 19.6297 0.996993C19.9735 1.34081 20.1667 1.80713 20.1667 2.29336V20.6267C20.1667 21.1129 19.9735 21.5792 19.6297 21.9231C19.2859 22.2669 18.8196 22.46 18.3333 22.46C17.8471 22.46 17.3808 22.2669 17.037 21.9231C16.6932 21.5792 16.5 21.1129 16.5 20.6267V2.29336Z" fill="#00E6F6"/>
</svg>
