<svg width="21" height="23" viewBox="0 0 21 23" fill="none" xmlns="http://www.w3.org/2000/svg">
<path d="M1.83333 0.460022C2.31956 0.460022 2.78588 0.653177 3.1297 0.996993C3.47351 1.34081 3.66667 1.80713 3.66667 2.29336V20.6267C3.66667 21.1129 3.47351 21.5792 3.1297 21.9231C2.78588 22.2669 2.31956 22.46 1.83333 22.46C1.3471 22.46 0.880788 22.2669 0.536971 21.9231C0.193155 21.5792 0 21.1129 0 20.6267V2.29336C0 1.80713 0.193155 1.34081 0.536971 0.996993C0.880788 0.653177 1.3471 0.460022 1.83333 0.460022ZM16.5 15.3834V7.53669L10.9413 11.46L16.5 15.3834ZM5.64483 12.208C5.52528 12.1233 5.42776 12.0112 5.36047 11.8811C5.29317 11.7509 5.25805 11.6065 5.25805 11.46C5.25805 11.3135 5.29317 11.1691 5.36047 11.039C5.42776 10.9088 5.52528 10.7967 5.64483 10.712L18.722 1.47936C18.8593 1.38261 19.0206 1.32544 19.1881 1.31411C19.3557 1.30277 19.5232 1.3377 19.6723 1.41508C19.8214 1.49246 19.9463 1.60932 20.0335 1.75289C20.1207 1.89646 20.1668 2.06122 20.1667 2.22919V20.6909C20.1668 20.8588 20.1207 21.0236 20.0335 21.1672C19.9463 21.3107 19.8214 21.4276 19.6723 21.505C19.5232 21.5823 19.3557 21.6173 19.1881 21.6059C19.0206 21.5946 18.8593 21.5374 18.722 21.4407L5.64483 12.208Z" fill="#00E6F6"/>
</svg>
