<svg width="26" height="21" viewBox="0 0 26 21" fill="none" xmlns="http://www.w3.org/2000/svg">
<path d="M9.58549 6.59391L5.27605 10.46L9.58549 14.3261V6.59391ZM12.2974 20.0765C12.1887 20.2718 12.0235 20.4043 11.838 20.4449C11.6526 20.4855 11.462 20.431 11.3081 20.2933L1.16986 11.1971C1.07718 11.1137 1.00158 11.0032 0.949404 10.8749C0.89723 10.7467 0.870003 10.6044 0.870003 10.46C0.870003 10.3156 0.89723 10.1734 0.949404 10.0451C1.00158 9.91687 1.07718 9.80639 1.16986 9.72293L11.3081 0.62492C11.4146 0.529581 11.5396 0.473251 11.6695 0.462081C11.7994 0.450912 11.9293 0.485331 12.0449 0.561582C12.1604 0.637834 12.2573 0.752984 12.3249 0.89446C12.3925 1.03594 12.4282 1.1983 12.4281 1.36382V19.5562C12.4278 19.7427 12.3822 19.9244 12.2974 20.0765ZM22.3774 14.3261V6.59391L18.0679 10.46L22.3774 14.3261ZM13.9617 11.1971C13.869 11.1137 13.7934 11.0032 13.7413 10.8749C13.6891 10.7467 13.6619 10.6044 13.6619 10.46C13.6619 10.3156 13.6891 10.1734 13.7413 10.0451C13.7934 9.91687 13.869 9.80639 13.9617 9.72293L24.1 0.62492C24.2065 0.529581 24.3315 0.473251 24.4614 0.462081C24.5913 0.450912 24.7212 0.485331 24.8367 0.561582C24.9523 0.637834 25.0492 0.752984 25.1168 0.89446C25.1844 1.03594 25.2201 1.1983 25.22 1.36382V19.5562C25.2201 19.7217 25.1844 19.8841 25.1168 20.0256C25.0492 20.1671 24.9523 20.2822 24.8367 20.3585C24.7212 20.4347 24.5913 20.4691 24.4614 20.458C24.3315 20.4468 24.2065 20.3905 24.1 20.2951L13.9617 11.1971Z" fill="#00E6F6"/>
</svg>
